<svg viewBox="0 0 491.5 88.9" xmlns="http://www.w3.org/2000/svg">
  <title>Our Studio</title>
  <style>
    path {
      fill: #191919;
    }
    @media (prefers-color-scheme: dark) {
      path {
        fill: #fff;
      }
    }
  </style>
  <path d="M484.1 74c4.1 0 7.4 3.3 7.4 7.4s-3.3 7.4-7.4 7.4c-4.1 0-7.4-3.3-7.4-7.4s3.3-7.4 7.4-7.4zm-67.9-2.4c1.1 3.6 2.9 6.7 5.3 9.2 2.4 2.5 5.3 4.5 8.9 5.9 3.6 1.4 7.8 2.1 12.7 2.1 4.4 0 8.3-.6 11.9-1.9s6.6-3.2 9-5.7c2.5-2.5 4.4-5.5 5.7-9.2 1.3-3.6 2-7.8 2-12.5 0-4.5-.6-8.5-1.7-12.1-1.1-3.6-2.8-6.7-5.1-9.3-2.3-2.5-5.3-4.5-8.9-5.9-3.6-1.4-7.9-2.1-13-2.1-4.3 0-8.2.6-11.8 1.9-3.5 1.3-6.6 3.2-9 5.7-2.5 2.5-4.4 5.5-5.8 9.2-1.4 3.7-2 7.9-2 12.6.1 4.5.7 8.5 1.8 12.1zM430.8 41c2.8-3.9 6.6-5.8 11.3-5.8 3.2 0 5.9.6 8 1.8 2.2 1.2 4 2.9 5.4 5.1 1.4 2.2 2.4 4.8 3.1 7.8.6 3 1 6.2 1 9.6 0 8.4-1.4 14.5-4.1 18.4-2.7 3.9-6.2 5.8-10.5 5.8-3.4 0-6.2-.6-8.6-1.9-2.3-1.3-4.2-3-5.7-5.1-1.5-2.2-2.5-4.7-3.2-7.6-.6-2.9-1-6.1-1-9.6.1-8.5 1.5-14.6 4.3-18.5zm-34.4-19.3c4.1 0 7.4-3.3 7.4-7.4s-3.3-7.4-7.4-7.4c-4.1 0-7.4 3.3-7.4 7.4s3.3 7.4 7.4 7.4zm7.3 60.6V31.2h-19.3v5.4h8v45.8h-19.2V0l-11.3 8.9V32c-1-.3-1.9-.6-2.8-.8-.9-.3-1.8-.4-2.7-.6-.9-.1-1.9-.3-3-.3-1.1-.1-2.4-.1-3.9-.1-4.2 0-8.1.6-11.5 1.9-3.4 1.3-6.4 3.2-8.8 5.7-2.4 2.5-4.3 5.6-5.7 9.3-1.3 3.7-2 8-2 12.8 0 10 2 17.3 6 22 2 2.4 4.6 4.2 7.7 5.4.6.3 1.2.5 1.8.7.8.2 1.7.4 2.7.6h.2l2.1.3c.3 0 .7.1 1.1.1.8.1 1.5.1 2.3.1h.2c4.6 0 5.1-1.1 5.1-1.1l7.1-6.9-6.8.6-3.1.1c-2.5 0-4.7-.6-6.5-1.7-1.8-1.1-3.3-2.7-4.4-4.7-1.2-2-2-4.3-2.5-6.9-.5-2.7-.8-5.5-.8-8.5 0-3.7.4-7.1 1.1-10.2.7-3.1 1.8-5.7 3.2-7.8 1.4-2.2 3.1-3.8 5.2-5 2.1-1.1 4.4-1.7 7.1-1.7 2.9 0 5.2.2 7 .5 1.8.4 3.4.9 4.8 1.6V87.8h49.8v-5.4h-8.2zm-123-1.9c-1.6-.8-2.8-2-3.7-3.6-.9-1.6-1.5-3.5-1.8-5.8-.3-2.3-.5-4.9-.5-7.8 0-5.5.1-10.9.2-16s.2-10.5.4-16.1H241.7V17.7l-11.3 10v45.1c0 5.7 1.3 9.9 3.8 12.3 2.5 2.5 6.2 3.7 11 3.7 1.9 0 3.7-.2 5.4-.6 1.8-.4 3.4-1 4.8-1.6 1.4-.6 2.7-1.3 3.8-2.1 1.1-.8 2-1.5 2.6-2.1l-2.7-4.2c-1.4.9-2.9 1.8-4.5 2.6s-3.5 1.2-5.8 1.2c-2.6 0-4.5-.9-5.6-2.8-1.2-1.9-1.7-5.1-1.7-9.6V38.1H264c0 4.1-.1 8.3-.3 12.7-.2 5-.3 9.8-.3 14.5 0 4.7.4 8.5 1.3 11.5s2.1 5.4 3.8 7.2c1.7 1.8 3.7 3 6.1 3.7 2.4.7 5.8 1 8.5 1 4.6 0 8.9-1.1 8.9-1.1l5.6-6.8-10.8.6c-2.6.2-4.6-.2-6.1-1zm31.9 1.9V31.2h-19.2v5.4h7.9v32.3l.2 18.8h19.1v-5.4h-8zm-103.7-1.7c-2.2 1.4-5.1 2.1-8.5 2.1-2.1 0-3.8-.2-5.1-.6s-2.4-1-3.3-1.7l-2.2-2.2v-8h-6.9v14.1c1.9 1.2 4.5 2.3 7.7 3.2 3.3.9 6.7 1.3 10.1 1.3 3.1 0 6-.4 8.8-1.1 2.8-.8 5.2-1.8 7.3-3.2 2.1-1.4 3.7-3.1 4.9-5.1 1.2-2 1.8-4.3 1.8-6.9 0-2.8-.7-5.2-2.2-7.2-1.4-2-3.2-3.8-5.4-5.3s-4.5-2.9-7-4.1c-2.5-1.2-4.8-2.5-7-3.7-2.2-1.2-3.9-2.6-5.4-4-1.4-1.4-2.2-3.1-2.2-5 0-2 .8-3.6 2.5-4.9 1.7-1.3 4.3-2 7.7-2 1.2 0 2.4.1 3.4.2 1.1.1 2.1.3 3 .5l2 2.3v8.3h6.9V33c-1.3-.4-2.6-.8-3.8-1.2-1.2-.4-2.5-.7-3.9-.9-1.4-.3-2.9-.4-4.5-.6-1.7-.1-3.6-.2-5.7-.2-2.6 0-5.1.3-7.4 1-2.3.7-4.3 1.6-6 2.9-1.7 1.2-3.1 2.7-4.1 4.4-1 1.7-1.5 3.6-1.5 5.7 0 3.1.7 5.7 2.2 7.9 1.4 2.2 3.2 4.1 5.4 5.7 2.2 1.6 4.5 3.1 7 4.3 2.5 1.3 4.8 2.5 7 3.7 2.2 1.2 3.9 2.6 5.4 4 1.4 1.5 2.2 3.1 2.2 5.1.1 2.5-1 4.4-3.2 5.8zm-61.2-39.7h13.1v-9.7h-10.3l-9.9 10.9h-.4V31.2h-19.3v5.4h8v45.8h-14.6V31.2H95.2v5.4h7.9v32.3l.2 18.8h46.3v-5.4h-9.4V48.8l7.5-7.9zM93.6 87.7l5.6-6.8-10.8.6c-2.4 0-4.5-.4-6-1.2-1.6-.8-2.8-2-3.7-3.6-.9-1.6-1.5-3.5-1.8-5.8-.3-2.3-.5-4.9-.5-7.8 0-5.5.1-10.9.2-16s.2-10.5.4-16.1H57.5v5.4h8.2c0 4.5-.1 9.3-.3 14.2-.2 5-.3 9.8-.3 14.5 0 4.7.4 8.5 1.3 11.5s2.1 5.4 3.8 7.2c1.7 1.8 3.7 3 6.1 3.7 2.4.7 5.8 1 8.5 1 4.6.3 8.8-.8 8.8-.8zM1.7 71.6c1.1 3.6 2.9 6.7 5.3 9.2 2.4 2.5 5.3 4.5 8.9 5.9 3.6 1.4 7.8 2.1 12.7 2.1 4.4 0 8.3-.6 11.9-1.9 3.5-1.3 6.6-3.2 9-5.7 2.5-2.5 4.4-5.5 5.7-9.2 1.3-3.6 2-7.8 2-12.5 0-4.5-.6-8.5-1.7-12.1-1.1-3.6-2.8-6.7-5.1-9.3-2.3-2.5-5.3-4.5-8.9-5.9-3.6-1.4-7.9-2.1-13-2.1-4.3 0-8.2.6-11.8 1.9-3.5 1.3-6.6 3.2-9 5.7-2.5 2.5-4.4 5.5-5.8 9.2-1.4 3.7-2 7.9-2 12.6C0 64 .6 68 1.7 71.6zM16.3 41c2.8-3.9 6.6-5.8 11.3-5.8 3.2 0 5.9.6 8 1.8 2.2 1.2 4 2.9 5.4 5.1 1.4 2.2 2.4 4.8 3.1 7.8.6 3 1 6.2 1 9.6 0 8.4-1.4 14.5-4.1 18.4-2.7 3.9-6.2 5.8-10.5 5.8-3.4 0-6.2-.6-8.6-1.9-2.3-1.3-4.2-3-5.7-5.1-1.5-2.2-2.5-4.7-3.2-7.6-.6-2.9-1-6.1-1-9.6.1-8.5 1.5-14.6 4.3-18.5z" />
</svg>